# xmcd
#
# Track frame offsets: 
#        150
#        14576
#        28139
#        38370
#        51518
#        62059
#        73401
#        84328
#        95411
#        106931
#        118991
#        130683
#        142452
#        154343
#        165219
#        177025
#        187459
#        200585
#        212163
#        224629
#        236562
#        247574
#        260561
#        273282
#
# Disc length: 3849 seconds
#
# Revision: 0
# Processed by: cddbd v1.5.2PL0 Copyright (c) Steve Scherf et al.
# Submitted via: ExactAudioCopyFreeDBPlugin 1.0
#
DISCID=6d0f0718
DTITLE=Shirley Ellis - Three, Six, Nine!:  The Best of Shirley Ellis
DYEAR=2018
DGENRE=Soul
TTITLE0=The Clapping Song (Clap Pat Clap Slap)
TTITLE1=The Name Game
TTITLE2=The Nitty Gritty
TTITLE3=Don't Let Go
TTITLE4=Takin' Care of Business
TTITLE5=Such a Night
TTITLE6=Get Out
TTITLE7=Kansas City
TTITLE8=(That's) What the Nitty Gritty Is
TTITLE9=Bring it on Home to Me
TTITLE10=C.C. Rider
TTITLE11=I Never Will Forget
TTITLE12=I See it, I Like it, I Want It
TTITLE13=The Puzzle Song (A Puzzle in Song)
TTITLE14=Ka Ta Ga Ta Boom Beat
TTITLE15=One Sour Note
TTITLE16=You Better Be Good, World
TTITLE17=Ever See a Diver Kiss His Wife While the Bubbles Bounce About
TTITLE17=Above the Water?
TTITLE18=Birds, Bees, Cupids and Bows
TTITLE19=Soul Time
TTITLE20=Waitin'
TTITLE21=Sugar, Let's Shing-A-Ling
TTITLE22=Back Track
TTITLE23=Yes I'm Ready
EXTD=
EXTT0=
EXTT1=
EXTT2=
EXTT3=
EXTT4=
EXTT5=
EXTT6=
EXTT7=
EXTT8=
EXTT9=
EXTT10=
EXTT11=
EXTT12=
EXTT13=
EXTT14=
EXTT15=
EXTT16=
EXTT17=
EXTT18=
EXTT19=
EXTT20=
EXTT21=
EXTT22=
EXTT23=
PLAYORDER=
